<mxfile host="Electron" modified="2024-05-18T13:29:29.133Z" agent="Mozilla/5.0 (Windows NT 10.0; Win64; x64) AppleWebKit/537.36 (KHTML, like Gecko) draw.io/24.4.0 Chrome/120.0.6099.109 Electron/28.1.0 Safari/537.36" etag="ymxQ6ik5AukvlZfnA93U" version="24.4.0" type="device">
  <diagram name="Seite-1" id="cgCj4K8BBYE1bUJCbDha">
    <mxGraphModel dx="794" dy="605" grid="1" gridSize="10" guides="1" tooltips="1" connect="1" arrows="1" fold="1" page="1" pageScale="1" pageWidth="827" pageHeight="1169" math="0" shadow="0">
      <root>
        <mxCell id="0" />
        <mxCell id="1" parent="0" />
        <mxCell id="NuTCc1jlhfeAcqLOyTFG-1" value="Node" style="swimlane;fontStyle=1;align=center;verticalAlign=top;childLayout=stackLayout;horizontal=1;startSize=26;horizontalStack=0;resizeParent=1;resizeParentMax=0;resizeLast=0;collapsible=1;marginBottom=0;whiteSpace=wrap;html=1;" vertex="1" parent="1">
          <mxGeometry x="330" y="260" width="160" height="118" as="geometry" />
        </mxCell>
        <mxCell id="NuTCc1jlhfeAcqLOyTFG-2" value="+ key&lt;div&gt;+value&lt;/div&gt;&lt;div&gt;- parent&lt;/div&gt;&lt;div&gt;- left&lt;/div&gt;&lt;div&gt;- right&lt;/div&gt;" style="text;strokeColor=none;fillColor=none;align=left;verticalAlign=top;spacingLeft=4;spacingRight=4;overflow=hidden;rotatable=0;points=[[0,0.5],[1,0.5]];portConstraint=eastwest;whiteSpace=wrap;html=1;" vertex="1" parent="NuTCc1jlhfeAcqLOyTFG-1">
          <mxGeometry y="26" width="160" height="84" as="geometry" />
        </mxCell>
        <mxCell id="NuTCc1jlhfeAcqLOyTFG-3" value="" style="line;strokeWidth=1;fillColor=none;align=left;verticalAlign=middle;spacingTop=-1;spacingLeft=3;spacingRight=3;rotatable=0;labelPosition=right;points=[];portConstraint=eastwest;strokeColor=inherit;" vertex="1" parent="NuTCc1jlhfeAcqLOyTFG-1">
          <mxGeometry y="110" width="160" height="8" as="geometry" />
        </mxCell>
      </root>
    </mxGraphModel>
  </diagram>
</mxfile>
